<mxfile host="app.diagrams.net" modified="2024-06-16T08:58:28.951Z" agent="Mozilla/5.0 (X11; Linux x86_64; rv:127.0) Gecko/20100101 Firefox/127.0" etag="BiJ1VCQjUrbU-sU_EIWE" version="24.5.4" type="device">
  <diagram name="Page-1" id="5f0bae14-7c28-e335-631c-24af17079c00">
    <mxGraphModel dx="1296" dy="792" grid="1" gridSize="10" guides="1" tooltips="1" connect="1" arrows="1" fold="1" page="1" pageScale="1" pageWidth="1100" pageHeight="850" background="none" math="0" shadow="0">
      <root>
        <mxCell id="0" />
        <mxCell id="1" parent="0" />
        <mxCell id="0XMt_JhZkHmXZt5vfSh--1" value="&lt;div&gt;Core&lt;/div&gt;&lt;div style=&quot;font-size: 9px;&quot;&gt;Handles state. State is persistent, written to and read from DB&lt;br&gt;&lt;/div&gt;" style="rounded=1;whiteSpace=wrap;html=1;strokeWidth=2;" vertex="1" parent="1">
          <mxGeometry x="440" y="460" width="120" height="100" as="geometry" />
        </mxCell>
        <mxCell id="0XMt_JhZkHmXZt5vfSh--66" style="edgeStyle=orthogonalEdgeStyle;rounded=0;orthogonalLoop=1;jettySize=auto;html=1;entryX=0.5;entryY=0;entryDx=0;entryDy=0;startArrow=classic;startFill=1;" edge="1" parent="1" source="0XMt_JhZkHmXZt5vfSh--4" target="0XMt_JhZkHmXZt5vfSh--1">
          <mxGeometry relative="1" as="geometry" />
        </mxCell>
        <mxCell id="0XMt_JhZkHmXZt5vfSh--4" value="&lt;div&gt;State DB&lt;/div&gt;&lt;div style=&quot;font-size: 9px;&quot;&gt;Every change is kept, the newest gets loaded&lt;br&gt;&lt;/div&gt;" style="shape=cylinder3;whiteSpace=wrap;html=1;boundedLbl=1;backgroundOutline=1;size=15;strokeWidth=2;" vertex="1" parent="1">
          <mxGeometry x="450" y="250" width="100" height="90" as="geometry" />
        </mxCell>
        <mxCell id="0XMt_JhZkHmXZt5vfSh--8" value="" style="rounded=1;whiteSpace=wrap;html=1;" vertex="1" parent="1">
          <mxGeometry x="230" y="480" width="120" height="60" as="geometry" />
        </mxCell>
        <mxCell id="0XMt_JhZkHmXZt5vfSh--9" value="" style="rounded=1;whiteSpace=wrap;html=1;" vertex="1" parent="1">
          <mxGeometry x="220" y="470" width="120" height="60" as="geometry" />
        </mxCell>
        <mxCell id="0XMt_JhZkHmXZt5vfSh--10" value="&lt;div&gt;Rest Handlers&lt;/div&gt;&lt;div&gt;&lt;font style=&quot;font-size: 9px;&quot;&gt;Request state info,&lt;/font&gt;&lt;/div&gt;&lt;div&gt;&lt;font style=&quot;font-size: 9px;&quot;&gt;initiate state changes&lt;br&gt;&lt;/font&gt;&lt;/div&gt;" style="rounded=1;whiteSpace=wrap;html=1;" vertex="1" parent="1">
          <mxGeometry x="210" y="460" width="120" height="60" as="geometry" />
        </mxCell>
        <mxCell id="0XMt_JhZkHmXZt5vfSh--15" value="GUIs" style="ellipse;shape=cloud;whiteSpace=wrap;html=1;" vertex="1" parent="1">
          <mxGeometry x="40" y="385" width="120" height="80" as="geometry" />
        </mxCell>
        <mxCell id="0XMt_JhZkHmXZt5vfSh--31" style="edgeStyle=orthogonalEdgeStyle;rounded=0;orthogonalLoop=1;jettySize=auto;html=1;entryX=0.25;entryY=0;entryDx=0;entryDy=0;fillColor=#d5e8d4;strokeColor=#82b366;startArrow=classic;startFill=1;" edge="1" parent="1" source="0XMt_JhZkHmXZt5vfSh--16" target="0XMt_JhZkHmXZt5vfSh--1">
          <mxGeometry relative="1" as="geometry" />
        </mxCell>
        <mxCell id="0XMt_JhZkHmXZt5vfSh--16" value="" style="rounded=1;whiteSpace=wrap;html=1;" vertex="1" parent="1">
          <mxGeometry x="230" y="365" width="120" height="60" as="geometry" />
        </mxCell>
        <mxCell id="0XMt_JhZkHmXZt5vfSh--17" value="" style="rounded=1;whiteSpace=wrap;html=1;" vertex="1" parent="1">
          <mxGeometry x="220" y="355" width="120" height="60" as="geometry" />
        </mxCell>
        <mxCell id="0XMt_JhZkHmXZt5vfSh--18" value="&lt;div&gt;WebSocket&lt;/div&gt;&lt;div style=&quot;font-size: 9px;&quot;&gt;Communicates update information to GUIs&lt;br&gt;&lt;/div&gt;" style="rounded=1;whiteSpace=wrap;html=1;" vertex="1" parent="1">
          <mxGeometry x="210" y="345" width="120" height="60" as="geometry" />
        </mxCell>
        <mxCell id="0XMt_JhZkHmXZt5vfSh--19" style="edgeStyle=orthogonalEdgeStyle;rounded=0;orthogonalLoop=1;jettySize=auto;html=1;exitX=0.88;exitY=0.25;exitDx=0;exitDy=0;exitPerimeter=0;entryX=-0.004;entryY=0.33;entryDx=0;entryDy=0;entryPerimeter=0;startArrow=classic;startFill=1;fillColor=#f8cecc;strokeColor=#b85450;" edge="1" parent="1" source="0XMt_JhZkHmXZt5vfSh--15" target="0XMt_JhZkHmXZt5vfSh--18">
          <mxGeometry relative="1" as="geometry" />
        </mxCell>
        <mxCell id="0XMt_JhZkHmXZt5vfSh--20" style="edgeStyle=orthogonalEdgeStyle;rounded=0;orthogonalLoop=1;jettySize=auto;html=1;entryX=0.915;entryY=0.782;entryDx=0;entryDy=0;entryPerimeter=0;startArrow=classic;startFill=1;fillColor=#e1d5e7;strokeColor=#9673a6;" edge="1" parent="1" source="0XMt_JhZkHmXZt5vfSh--10" target="0XMt_JhZkHmXZt5vfSh--15">
          <mxGeometry relative="1" as="geometry" />
        </mxCell>
        <mxCell id="0XMt_JhZkHmXZt5vfSh--22" style="edgeStyle=orthogonalEdgeStyle;rounded=0;orthogonalLoop=1;jettySize=auto;html=1;entryX=0.001;entryY=0.714;entryDx=0;entryDy=0;entryPerimeter=0;exitX=0.929;exitY=0.362;exitDx=0;exitDy=0;exitPerimeter=0;startArrow=classic;startFill=1;fillColor=#e1d5e7;strokeColor=#9673a6;" edge="1" parent="1" source="0XMt_JhZkHmXZt5vfSh--21" target="0XMt_JhZkHmXZt5vfSh--10">
          <mxGeometry relative="1" as="geometry">
            <mxPoint x="190" y="520" as="targetPoint" />
          </mxGeometry>
        </mxCell>
        <mxCell id="0XMt_JhZkHmXZt5vfSh--21" value="CLIs" style="ellipse;shape=cloud;whiteSpace=wrap;html=1;" vertex="1" parent="1">
          <mxGeometry x="40" y="520" width="120" height="80" as="geometry" />
        </mxCell>
        <mxCell id="0XMt_JhZkHmXZt5vfSh--26" value="Exchanges" style="ellipse;shape=cloud;whiteSpace=wrap;html=1;" vertex="1" parent="1">
          <mxGeometry x="810" y="345" width="120" height="80" as="geometry" />
        </mxCell>
        <mxCell id="0XMt_JhZkHmXZt5vfSh--27" value="" style="rounded=1;whiteSpace=wrap;html=1;" vertex="1" parent="1">
          <mxGeometry x="640" y="365" width="120" height="60" as="geometry" />
        </mxCell>
        <mxCell id="0XMt_JhZkHmXZt5vfSh--28" value="" style="rounded=1;whiteSpace=wrap;html=1;" vertex="1" parent="1">
          <mxGeometry x="630" y="355" width="120" height="60" as="geometry" />
        </mxCell>
        <mxCell id="0XMt_JhZkHmXZt5vfSh--29" value="&lt;div&gt;Private XC Cons&lt;/div&gt;&lt;div style=&quot;font-size: 9px;&quot;&gt;&lt;font size=&quot;1&quot;&gt;Get account info,&lt;/font&gt;&lt;/div&gt;&lt;div style=&quot;font-size: 9px;&quot;&gt;&lt;font size=&quot;1&quot;&gt;execute trades on XCs&lt;/font&gt;&lt;br&gt;&lt;/div&gt;" style="rounded=1;whiteSpace=wrap;html=1;" vertex="1" parent="1">
          <mxGeometry x="620" y="345" width="120" height="60" as="geometry" />
        </mxCell>
        <mxCell id="0XMt_JhZkHmXZt5vfSh--30" style="edgeStyle=orthogonalEdgeStyle;rounded=0;orthogonalLoop=1;jettySize=auto;html=1;entryX=-0.015;entryY=0.498;entryDx=0;entryDy=0;entryPerimeter=0;fillColor=#d5e8d4;strokeColor=#82b366;startArrow=classic;startFill=1;" edge="1" parent="1" source="0XMt_JhZkHmXZt5vfSh--8" target="0XMt_JhZkHmXZt5vfSh--1">
          <mxGeometry relative="1" as="geometry" />
        </mxCell>
        <mxCell id="0XMt_JhZkHmXZt5vfSh--35" style="edgeStyle=orthogonalEdgeStyle;rounded=0;orthogonalLoop=1;jettySize=auto;html=1;startArrow=classic;startFill=1;endArrow=classic;endFill=1;fillColor=#f8cecc;strokeColor=#b85450;" edge="1" parent="1" source="0XMt_JhZkHmXZt5vfSh--33" target="0XMt_JhZkHmXZt5vfSh--26">
          <mxGeometry relative="1" as="geometry">
            <Array as="points">
              <mxPoint x="870" y="460" />
            </Array>
          </mxGeometry>
        </mxCell>
        <mxCell id="0XMt_JhZkHmXZt5vfSh--33" value="&lt;div&gt;Public XC Conn&lt;/div&gt;&lt;div style=&quot;font-size: 9px;&quot;&gt;&lt;font size=&quot;1&quot;&gt;Gets market info,&lt;br&gt;&lt;/font&gt;&lt;/div&gt;" style="rounded=1;whiteSpace=wrap;html=1;" vertex="1" parent="1">
          <mxGeometry x="620" y="450" width="120" height="60" as="geometry" />
        </mxCell>
        <mxCell id="0XMt_JhZkHmXZt5vfSh--34" style="edgeStyle=orthogonalEdgeStyle;rounded=0;orthogonalLoop=1;jettySize=auto;html=1;startArrow=classic;startFill=1;fillColor=#f8cecc;strokeColor=#b85450;entryX=0.08;entryY=0.702;entryDx=0;entryDy=0;entryPerimeter=0;" edge="1" parent="1" source="0XMt_JhZkHmXZt5vfSh--27" target="0XMt_JhZkHmXZt5vfSh--26">
          <mxGeometry relative="1" as="geometry" />
        </mxCell>
        <mxCell id="0XMt_JhZkHmXZt5vfSh--36" style="edgeStyle=orthogonalEdgeStyle;rounded=0;orthogonalLoop=1;jettySize=auto;html=1;entryX=0.735;entryY=-0.022;entryDx=0;entryDy=0;entryPerimeter=0;fillColor=#d5e8d4;strokeColor=#82b366;startArrow=classic;startFill=1;" edge="1" parent="1" source="0XMt_JhZkHmXZt5vfSh--29" target="0XMt_JhZkHmXZt5vfSh--1">
          <mxGeometry relative="1" as="geometry" />
        </mxCell>
        <mxCell id="0XMt_JhZkHmXZt5vfSh--37" style="edgeStyle=orthogonalEdgeStyle;rounded=0;orthogonalLoop=1;jettySize=auto;html=1;entryX=1.008;entryY=0.467;entryDx=0;entryDy=0;entryPerimeter=0;fillColor=#d5e8d4;strokeColor=#82b366;startArrow=classic;startFill=1;" edge="1" parent="1" source="0XMt_JhZkHmXZt5vfSh--33" target="0XMt_JhZkHmXZt5vfSh--1">
          <mxGeometry relative="1" as="geometry" />
        </mxCell>
        <mxCell id="0XMt_JhZkHmXZt5vfSh--38" value="" style="rounded=0;whiteSpace=wrap;html=1;fillColor=#f8cecc;strokeColor=#b85450;" vertex="1" parent="1">
          <mxGeometry x="60" y="730" width="20" height="10" as="geometry" />
        </mxCell>
        <mxCell id="0XMt_JhZkHmXZt5vfSh--39" value="&lt;font style=&quot;font-size: 9px;&quot;&gt;Websocket&lt;/font&gt;" style="text;html=1;align=left;verticalAlign=middle;whiteSpace=wrap;rounded=0;labelPosition=center;verticalLabelPosition=middle;" vertex="1" parent="1">
          <mxGeometry x="90" y="730" width="60" height="10" as="geometry" />
        </mxCell>
        <mxCell id="0XMt_JhZkHmXZt5vfSh--40" value="" style="rounded=0;whiteSpace=wrap;html=1;fillColor=#dae8fc;strokeColor=#6c8ebf;" vertex="1" parent="1">
          <mxGeometry x="60" y="750" width="20" height="10" as="geometry" />
        </mxCell>
        <mxCell id="0XMt_JhZkHmXZt5vfSh--41" value="&lt;font style=&quot;font-size: 9px;&quot;&gt;Gorm&lt;/font&gt;" style="text;html=1;align=left;verticalAlign=middle;whiteSpace=wrap;rounded=0;labelPosition=center;verticalLabelPosition=middle;" vertex="1" parent="1">
          <mxGeometry x="90" y="750" width="60" height="10" as="geometry" />
        </mxCell>
        <mxCell id="0XMt_JhZkHmXZt5vfSh--43" value="" style="rounded=0;whiteSpace=wrap;html=1;fillColor=#d5e8d4;strokeColor=#82b366;" vertex="1" parent="1">
          <mxGeometry x="60" y="770" width="20" height="10" as="geometry" />
        </mxCell>
        <mxCell id="0XMt_JhZkHmXZt5vfSh--44" value="&lt;font style=&quot;font-size: 9px;&quot;&gt;CoreMsg&lt;/font&gt;" style="text;html=1;align=left;verticalAlign=middle;whiteSpace=wrap;rounded=0;labelPosition=center;verticalLabelPosition=middle;fontSize=9;" vertex="1" parent="1">
          <mxGeometry x="90" y="770" width="60" height="10" as="geometry" />
        </mxCell>
        <mxCell id="0XMt_JhZkHmXZt5vfSh--45" value="" style="rounded=0;whiteSpace=wrap;html=1;fillColor=#e1d5e7;strokeColor=#9673a6;" vertex="1" parent="1">
          <mxGeometry x="60" y="710" width="20" height="10" as="geometry" />
        </mxCell>
        <mxCell id="0XMt_JhZkHmXZt5vfSh--46" value="HTTP" style="text;html=1;align=left;verticalAlign=middle;whiteSpace=wrap;rounded=0;labelPosition=center;verticalLabelPosition=middle;fontSize=9;" vertex="1" parent="1">
          <mxGeometry x="90" y="710" width="60" height="10" as="geometry" />
        </mxCell>
        <mxCell id="0XMt_JhZkHmXZt5vfSh--47" value="&lt;div&gt;Market DB&lt;/div&gt;&lt;div style=&quot;font-size: 9px;&quot;&gt;Historic market data cache&lt;br&gt;&lt;/div&gt;" style="shape=cylinder3;whiteSpace=wrap;html=1;boundedLbl=1;backgroundOutline=1;size=15;" vertex="1" parent="1">
          <mxGeometry x="620" y="540" width="80" height="100" as="geometry" />
        </mxCell>
        <mxCell id="0XMt_JhZkHmXZt5vfSh--48" style="edgeStyle=orthogonalEdgeStyle;rounded=0;orthogonalLoop=1;jettySize=auto;html=1;entryX=0.5;entryY=0;entryDx=0;entryDy=0;entryPerimeter=0;startArrow=classic;startFill=1;fillColor=#dae8fc;strokeColor=#6c8ebf;exitX=0.332;exitY=1.037;exitDx=0;exitDy=0;exitPerimeter=0;" edge="1" target="0XMt_JhZkHmXZt5vfSh--47" parent="1" source="0XMt_JhZkHmXZt5vfSh--33">
          <mxGeometry relative="1" as="geometry">
            <mxPoint x="700" y="520" as="sourcePoint" />
            <Array as="points">
              <mxPoint x="660" y="520" />
              <mxPoint x="660" y="520" />
            </Array>
          </mxGeometry>
        </mxCell>
        <mxCell id="0XMt_JhZkHmXZt5vfSh--65" style="edgeStyle=orthogonalEdgeStyle;rounded=0;orthogonalLoop=1;jettySize=auto;html=1;entryX=1;entryY=0.5;entryDx=0;entryDy=0;startArrow=classic;startFill=1;" edge="1" parent="1" source="0XMt_JhZkHmXZt5vfSh--49" target="0XMt_JhZkHmXZt5vfSh--33">
          <mxGeometry relative="1" as="geometry">
            <Array as="points">
              <mxPoint x="920" y="480" />
            </Array>
          </mxGeometry>
        </mxCell>
        <mxCell id="0XMt_JhZkHmXZt5vfSh--49" value="&lt;div&gt;Data Collector&lt;/div&gt;&lt;div style=&quot;font-size: 9px;&quot;&gt;Loads simulation grade market data from XCs&lt;br&gt;&lt;/div&gt;" style="rounded=1;whiteSpace=wrap;html=1;" vertex="1" parent="1">
          <mxGeometry x="860" y="520" width="120" height="60" as="geometry" />
        </mxCell>
        <mxCell id="0XMt_JhZkHmXZt5vfSh--54" value="" style="rounded=1;whiteSpace=wrap;html=1;" vertex="1" parent="1">
          <mxGeometry x="640" y="700" width="120" height="60" as="geometry" />
        </mxCell>
        <mxCell id="0XMt_JhZkHmXZt5vfSh--55" value="" style="rounded=1;whiteSpace=wrap;html=1;" vertex="1" parent="1">
          <mxGeometry x="630" y="690" width="120" height="60" as="geometry" />
        </mxCell>
        <mxCell id="0XMt_JhZkHmXZt5vfSh--56" value="&lt;div&gt;Brokers&lt;/div&gt;&lt;font size=&quot;1&quot;&gt;Initiate trades through the Geronimo protocol&lt;br&gt;&lt;/font&gt;" style="rounded=1;whiteSpace=wrap;html=1;" vertex="1" parent="1">
          <mxGeometry x="620" y="680" width="120" height="60" as="geometry" />
        </mxCell>
        <mxCell id="0XMt_JhZkHmXZt5vfSh--57" style="edgeStyle=orthogonalEdgeStyle;rounded=0;orthogonalLoop=1;jettySize=auto;html=1;entryX=1;entryY=0.7;entryDx=0;entryDy=0;entryPerimeter=0;fillColor=#d5e8d4;strokeColor=#82b366;startArrow=classic;startFill=1;" edge="1" parent="1" source="0XMt_JhZkHmXZt5vfSh--56" target="0XMt_JhZkHmXZt5vfSh--1">
          <mxGeometry relative="1" as="geometry" />
        </mxCell>
        <mxCell id="0XMt_JhZkHmXZt5vfSh--58" style="edgeStyle=orthogonalEdgeStyle;rounded=0;orthogonalLoop=1;jettySize=auto;html=1;exitX=0.831;exitY=0.009;exitDx=0;exitDy=0;exitPerimeter=0;entryX=0.828;entryY=1.057;entryDx=0;entryDy=0;entryPerimeter=0;startArrow=classic;startFill=1;fillColor=#d5e8d4;strokeColor=#82b366;" edge="1" parent="1" source="0XMt_JhZkHmXZt5vfSh--56" target="0XMt_JhZkHmXZt5vfSh--33">
          <mxGeometry relative="1" as="geometry">
            <mxPoint x="720.1999999999998" y="679.9999999999999" as="sourcePoint" />
            <mxPoint x="720" y="520" as="targetPoint" />
            <Array as="points">
              <mxPoint x="720" y="600" />
            </Array>
          </mxGeometry>
        </mxCell>
        <mxCell id="0XMt_JhZkHmXZt5vfSh--59" value="" style="rounded=1;whiteSpace=wrap;html=1;" vertex="1" parent="1">
          <mxGeometry x="430" y="700" width="120" height="60" as="geometry" />
        </mxCell>
        <mxCell id="0XMt_JhZkHmXZt5vfSh--60" value="" style="rounded=1;whiteSpace=wrap;html=1;" vertex="1" parent="1">
          <mxGeometry x="420" y="690" width="120" height="60" as="geometry" />
        </mxCell>
        <mxCell id="0XMt_JhZkHmXZt5vfSh--62" style="edgeStyle=orthogonalEdgeStyle;rounded=0;orthogonalLoop=1;jettySize=auto;html=1;entryX=0.5;entryY=1;entryDx=0;entryDy=0;fillColor=#d5e8d4;strokeColor=#82b366;startArrow=classic;startFill=1;" edge="1" parent="1" source="0XMt_JhZkHmXZt5vfSh--61" target="0XMt_JhZkHmXZt5vfSh--1">
          <mxGeometry relative="1" as="geometry">
            <Array as="points">
              <mxPoint x="500" y="650" />
              <mxPoint x="500" y="650" />
            </Array>
          </mxGeometry>
        </mxCell>
        <mxCell id="0XMt_JhZkHmXZt5vfSh--61" value="&lt;div&gt;Simulators&lt;/div&gt;&lt;font size=&quot;1&quot;&gt;Mimics protocol execution on historic market data&lt;br&gt;&lt;/font&gt;" style="rounded=1;whiteSpace=wrap;html=1;" vertex="1" parent="1">
          <mxGeometry x="410" y="680" width="120" height="60" as="geometry" />
        </mxCell>
        <mxCell id="0XMt_JhZkHmXZt5vfSh--63" style="edgeStyle=orthogonalEdgeStyle;rounded=0;orthogonalLoop=1;jettySize=auto;html=1;entryX=-0.014;entryY=0.842;entryDx=0;entryDy=0;entryPerimeter=0;fillColor=#d5e8d4;strokeColor=#82b366;startArrow=classic;startFill=1;" edge="1" parent="1" source="0XMt_JhZkHmXZt5vfSh--59" target="0XMt_JhZkHmXZt5vfSh--56">
          <mxGeometry relative="1" as="geometry" />
        </mxCell>
        <mxCell id="0XMt_JhZkHmXZt5vfSh--64" style="edgeStyle=orthogonalEdgeStyle;rounded=0;orthogonalLoop=1;jettySize=auto;html=1;fillColor=#d5e8d4;strokeColor=#82b366;startArrow=classic;startFill=1;" edge="1" parent="1" source="0XMt_JhZkHmXZt5vfSh--59">
          <mxGeometry relative="1" as="geometry">
            <mxPoint x="741" y="500" as="targetPoint" />
            <Array as="points">
              <mxPoint x="490" y="790" />
              <mxPoint x="790" y="790" />
              <mxPoint x="790" y="500" />
            </Array>
          </mxGeometry>
        </mxCell>
        <mxCell id="0XMt_JhZkHmXZt5vfSh--67" style="edgeStyle=orthogonalEdgeStyle;rounded=0;orthogonalLoop=1;jettySize=auto;html=1;fillColor=#e1d5e7;strokeColor=#9673a6;startArrow=classic;startFill=1;entryX=0.75;entryY=0;entryDx=0;entryDy=0;" edge="1" parent="1" source="0XMt_JhZkHmXZt5vfSh--26" target="0XMt_JhZkHmXZt5vfSh--49">
          <mxGeometry relative="1" as="geometry">
            <mxPoint x="950" y="500" as="targetPoint" />
            <Array as="points">
              <mxPoint x="950" y="385" />
            </Array>
          </mxGeometry>
        </mxCell>
        <mxCell id="0XMt_JhZkHmXZt5vfSh--68" style="edgeStyle=orthogonalEdgeStyle;rounded=0;orthogonalLoop=1;jettySize=auto;html=1;exitX=1;exitY=0.25;exitDx=0;exitDy=0;entryX=0.07;entryY=0.4;entryDx=0;entryDy=0;entryPerimeter=0;fillColor=#e1d5e7;strokeColor=#9673a6;startArrow=classic;startFill=1;" edge="1" parent="1" source="0XMt_JhZkHmXZt5vfSh--27" target="0XMt_JhZkHmXZt5vfSh--26">
          <mxGeometry relative="1" as="geometry" />
        </mxCell>
      </root>
    </mxGraphModel>
  </diagram>
</mxfile>
